<svg viewBox="0 0 34 38" fill="none" xmlns="http://www.w3.org/2000/svg">
<g clip-path="url(#clip0_4137_62808)">
<path d="M25.9222 17.9938C25.9171 15.6234 24.9732 13.3515 23.297 11.6754C21.6208 9.99934 19.3488 9.05561 16.9784 9.05078C14.6081 9.0558 12.3363 9.99962 10.6603 11.6757C8.98421 13.3517 8.04039 15.6235 8.03538 17.9938C8.03002 18.7121 8.12275 19.4278 8.31096 20.121C8.55015 21.1369 8.97765 22.099 9.57134 22.9574C9.68944 23.1936 9.84692 23.4305 10.0044 23.706C10.2012 24.021 10.3558 24.3387 10.5562 24.6122C11.3442 25.9126 11.8166 26.6606 11.8166 28.1973V31.9005C11.8147 32.3465 11.9726 32.7784 12.2617 33.1181C12.5508 33.4578 12.952 33.6826 13.3926 33.752C13.7863 35.7618 14.9687 37.0222 16.9777 37.0222C18.9868 37.0222 20.2113 35.7618 20.5628 33.752C21.0007 33.6767 21.3983 33.4501 21.6863 33.1118C21.9743 32.7734 22.1344 32.3448 22.1388 31.9005V28.1973C22.1388 26.6606 22.6112 25.8726 23.3993 24.6122C23.5567 24.3366 23.7507 24.021 23.9504 23.706C24.1078 23.4305 24.2653 23.1936 24.3834 22.9574C24.9774 22.0991 25.4049 21.137 25.6438 20.121C25.833 19.4279 25.9267 18.7122 25.9222 17.9938ZM20.6036 29.1435H13.4334V28.2373C13.4414 28.0655 13.4282 27.8934 13.394 27.7249H20.6036C20.6036 27.8823 20.5642 28.0398 20.5642 28.2373V29.1435H20.6036ZM20.2521 32.2561H13.7146C13.6731 32.2567 13.6319 32.2489 13.5934 32.2333C13.5549 32.2177 13.52 32.1945 13.4906 32.1652C13.4613 32.1358 13.4381 32.1008 13.4225 32.0624C13.4068 32.0239 13.3991 31.9827 13.3997 31.9412V30.7195H20.5698V31.9412C20.6036 32.0987 20.4454 32.2561 20.2486 32.2561H20.2521ZM16.9819 35.4897C16.5482 35.4897 15.4453 35.4897 15.0136 33.835H18.9931C18.5545 35.4862 17.4121 35.4863 16.9784 35.4863L16.9819 35.4897ZM24.1099 19.806C23.8986 20.651 23.5384 21.4515 23.0464 22.1701C22.8889 22.4063 22.7708 22.6425 22.6126 22.9187C22.4158 23.2337 22.2611 23.5514 22.1002 23.7855C21.6212 24.5139 21.2249 25.2933 20.9185 26.1095H13.1157C12.8255 25.2863 12.4282 24.5049 11.934 23.7855C11.7765 23.5092 11.5825 23.2337 11.4215 22.9187C11.2641 22.6432 11.1066 22.3676 10.9885 22.1701C10.4954 21.4377 10.1354 20.6241 9.92492 19.7667C9.76903 19.1886 9.68963 18.5925 9.68873 17.9938C9.69226 16.041 10.4695 14.1691 11.8503 12.7882C13.2311 11.4073 15.1029 10.6298 17.0558 10.6261C19.0086 10.6298 20.8804 11.4073 22.2611 12.7882C23.6419 14.1691 24.4192 16.041 24.4228 17.9938C24.3536 18.6034 24.2491 19.2085 24.1099 19.806Z" fill="currentColor"/>
<path d="M33.2105 17.207H29.9404C29.7316 17.2076 29.5314 17.2908 29.3838 17.4384C29.2361 17.5861 29.1529 17.7862 29.1523 17.995C29.1529 18.2039 29.2361 18.404 29.3838 18.5516C29.5314 18.6993 29.7316 18.7825 29.9404 18.7831H33.2105C33.4194 18.7825 33.6195 18.6993 33.7671 18.5516C33.9148 18.404 33.998 18.2039 33.9986 17.995C33.998 17.7862 33.9148 17.5861 33.7671 17.4384C33.6195 17.2908 33.4194 17.2076 33.2105 17.207Z" fill="currentColor"/>
<path d="M26.1216 9.64287C26.2246 9.64203 26.3265 9.62069 26.4212 9.58014C26.5159 9.53959 26.6017 9.48065 26.6734 9.40668L28.9981 7.08199C29.0728 7.01082 29.1323 6.92521 29.173 6.83035C29.2136 6.73549 29.2346 6.63334 29.2346 6.53014C29.2346 6.42694 29.2136 6.32483 29.173 6.22998C29.1323 6.13512 29.0728 6.04951 28.9981 5.97834C28.9269 5.90371 28.8413 5.8443 28.7465 5.80371C28.6517 5.76312 28.5497 5.74219 28.4466 5.74219C28.3435 5.74219 28.2414 5.76312 28.1466 5.80371C28.0518 5.8443 27.9663 5.90371 27.8951 5.97834L25.5704 8.30303C25.4957 8.37414 25.4362 8.45965 25.3956 8.55445C25.3549 8.64925 25.334 8.75134 25.334 8.85449C25.334 8.95763 25.3549 9.05968 25.3956 9.15448C25.4362 9.24928 25.4957 9.33484 25.5704 9.40595C25.642 9.47997 25.7276 9.53905 25.8222 9.57971C25.9169 9.62038 26.0186 9.64185 26.1216 9.64287Z" fill="currentColor"/>
<path d="M16.9814 5.82079C17.1902 5.82024 17.3903 5.73702 17.538 5.58936C17.6856 5.4417 17.7689 5.24162 17.7694 5.0328V1.76261C17.7689 1.55378 17.6856 1.3537 17.538 1.20604C17.3903 1.05838 17.1902 0.975166 16.9814 0.974609C16.7725 0.975166 16.5725 1.05838 16.4248 1.20604C16.2771 1.3537 16.1939 1.55378 16.1934 1.76261V5.0328C16.1939 5.24162 16.2771 5.4417 16.4248 5.58936C16.5725 5.73702 16.7725 5.82024 16.9814 5.82079Z" fill="currentColor"/>
<path d="M7.29092 9.40668C7.36271 9.48059 7.44844 9.53951 7.54316 9.58006C7.63789 9.6206 7.7397 9.64196 7.84273 9.64287C7.94577 9.642 8.04761 9.62065 8.14234 9.5801C8.23706 9.53955 8.32277 9.48062 8.39453 9.40668C8.46927 9.33551 8.5288 9.2499 8.56946 9.15504C8.61011 9.06018 8.63107 8.95803 8.63107 8.85483C8.63107 8.75163 8.61011 8.64952 8.56946 8.55467C8.5288 8.45981 8.46927 8.3742 8.39453 8.30303L6.06988 5.97834C5.99872 5.90371 5.91312 5.8443 5.81833 5.80371C5.72354 5.76312 5.6215 5.74219 5.51838 5.74219C5.41526 5.74219 5.31322 5.76312 5.21843 5.80371C5.12364 5.8443 5.03808 5.90371 4.96692 5.97834C4.8922 6.04945 4.83273 6.13501 4.79208 6.22981C4.75143 6.3246 4.73047 6.42665 4.73047 6.5298C4.73047 6.63294 4.75143 6.73504 4.79208 6.82983C4.83273 6.92463 4.8922 7.01015 4.96692 7.08126L7.29092 9.40668Z" fill="currentColor"/>
<path d="M4.05814 17.207H0.787997C0.579173 17.2076 0.379049 17.2908 0.231388 17.4384C0.0837264 17.5861 0.000556619 17.7862 0 17.995C0.000556619 18.2039 0.0837264 18.404 0.231388 18.5516C0.379049 18.6993 0.579173 18.7825 0.787997 18.7831H4.05814C4.26697 18.7825 4.46709 18.6993 4.61475 18.5516C4.76241 18.404 4.84563 18.2039 4.84618 17.995C4.84563 17.7862 4.76241 17.5861 4.61475 17.4384C4.46709 17.2908 4.26697 17.2076 4.05814 17.207Z" fill="currentColor"/>
<path d="M7.29092 26.5825L4.96692 28.9072C4.8922 28.9783 4.83273 29.0639 4.79208 29.1587C4.75143 29.2534 4.73047 29.3555 4.73047 29.4586C4.73047 29.5618 4.75143 29.6639 4.79208 29.7587C4.83273 29.8535 4.8922 29.939 4.96692 30.0101C5.03855 30.0841 5.12416 30.143 5.21877 30.1836C5.31338 30.2241 5.41511 30.2454 5.51804 30.2463C5.62108 30.2455 5.72291 30.2242 5.81764 30.1837C5.91238 30.1431 5.99814 30.0841 6.06988 30.0101L8.39453 27.6855C8.46915 27.6143 8.52856 27.5287 8.56915 27.4339C8.60974 27.3392 8.63068 27.2371 8.63068 27.134C8.63068 27.0309 8.60974 26.9288 8.56915 26.834C8.52856 26.7393 8.46915 26.6537 8.39453 26.5825C8.32341 26.5077 8.23784 26.4481 8.14297 26.4074C8.04811 26.3667 7.94595 26.3457 7.84272 26.3457C7.73949 26.3457 7.63734 26.3667 7.54247 26.4074C7.44761 26.4481 7.36204 26.5077 7.29092 26.5825Z" fill="currentColor"/>
<path d="M26.6731 26.5822C26.602 26.5074 26.5164 26.448 26.4216 26.4073C26.3268 26.3667 26.2247 26.3457 26.1216 26.3457C26.0184 26.3457 25.9164 26.3667 25.8216 26.4073C25.7268 26.448 25.6412 26.5074 25.5701 26.5822C25.4955 26.6533 25.4361 26.7389 25.3955 26.8337C25.3549 26.9285 25.334 27.0305 25.334 27.1337C25.334 27.2368 25.3549 27.3388 25.3955 27.4336C25.4361 27.5284 25.4955 27.614 25.5701 27.6851L27.8948 30.0098C27.9666 30.0838 28.0523 30.1428 28.147 30.1833C28.2417 30.2239 28.3436 30.2451 28.4467 30.246C28.5497 30.2451 28.6515 30.2239 28.7463 30.1833C28.841 30.1428 28.9267 30.0838 28.9985 30.0098C29.0731 29.9386 29.1325 29.8531 29.1731 29.7583C29.2137 29.6635 29.2346 29.5614 29.2346 29.4583C29.2346 29.3552 29.2137 29.2532 29.1731 29.1584C29.1325 29.0636 29.0731 28.978 28.9985 28.9068L26.6731 26.5822Z" fill="currentColor"/>
</g>
<defs>
<clipPath id="clip0_4137_62808">
<rect width="34" height="36.0491" fill="white" transform="translate(0 0.974609)"/>
</clipPath>
</defs>
</svg>
